<svg version="1.1" id="Layer_1" xmlns="http://www.w3.org/2000/svg" xmlns:xlink="http://www.w3.org/1999/xlink" x="0px" y="0px"
	 width="100%" viewBox="0 0 576 433" enable-background="new 0 0 576 433" xml:space="preserve">
	  <defs>
    <linearGradient id="grad1" x1="0%" x2="100%" y1="0%" y2="0%">
      <stop offset="0%" stop-color="#FBC02D" />
      <stop offset="100%" stop-color="#4aedc2" />
    </linearGradient>
  </defs>
<path fill="url(#grad1)" opacity="1.000000" stroke="none" 
	d="
M129.459793,374.045624 
	C129.218124,373.998169 128.976456,373.950745 128.361496,373.952057 
	C127.988197,374.000824 128.071960,373.988037 128.097260,373.553223 
	C128.122543,367.840973 128.122543,362.563507 128.122543,357.286041 
	C127.603622,357.175507 127.084709,357.065002 126.565788,356.954468 
	C125.280838,359.963104 123.995880,362.971741 122.385422,365.931702 
	C121.840652,365.874603 121.621399,365.866119 121.402153,365.857635 
	C121.787918,362.387085 122.173676,358.916565 122.585304,355.213379 
	C118.864502,357.562653 115.183556,359.886780 110.796471,362.656738 
	C111.879089,358.653595 112.735199,355.488037 113.591309,352.322479 
	C113.201317,352.136078 112.811317,351.949646 112.421326,351.763214 
	C109.838814,353.617279 107.256294,355.471313 104.673782,357.325378 
	C104.318924,356.911621 103.964066,356.497833 103.609207,356.084076 
	C103.285240,356.799103 102.888069,357.490692 102.649940,358.233246 
	C101.596321,361.518585 99.918877,364.308380 95.956314,362.948853 
	C92.408707,361.731750 89.133888,360.050079 88.877930,355.243866 
	C88.695930,351.826202 87.446404,348.465332 86.673317,345.079132 
	C86.218811,345.122284 85.764313,345.165436 85.309807,345.208588 
	C84.790642,348.806183 84.471062,352.450195 83.650688,355.977722 
	C83.337677,357.323578 81.876823,358.402466 80.939079,359.603027 
	C79.939529,358.446411 78.696022,357.422577 77.982079,356.110535 
	C74.646408,349.980530 77.249619,343.497528 77.076180,337.174225 
	C76.967972,333.229431 74.974770,328.995941 78.718285,325.494263 
	C79.045967,325.187714 78.287498,323.720001 78.024063,322.757080 
	C73.598351,324.835602 70.895203,330.933441 71.099304,338.258057 
	C71.339218,346.867737 71.651062,355.475464 71.523621,364.489166 
	C70.189301,364.901154 69.263069,364.907959 68.336838,364.914764 
	C68.718094,355.441986 69.231323,345.971588 69.400917,336.495026 
	C69.452400,333.617981 68.554764,330.723938 68.159912,328.262115 
	C65.248795,329.364807 62.721321,330.025269 60.543640,331.288666 
	C59.633614,331.816620 59.050903,333.617523 59.027172,334.853271 
	C58.820606,345.608643 58.744576,356.367035 58.713577,367.124756 
	C58.708893,368.750946 59.374393,370.389099 59.301556,372.002380 
	C59.217728,373.859070 58.657871,375.694214 58.304764,377.538727 
	C57.576790,377.603271 56.848820,377.667816 56.120846,377.732391 
	C55.485191,375.775574 53.693619,372.934875 54.403282,372.006836 
	C58.701912,366.385376 55.784687,360.005249 56.843185,354.105682 
	C57.448029,350.734558 56.952660,347.166016 56.952660,343.727966 
	C50.266468,342.838593 49.092339,341.662872 49.103455,335.083740 
	C49.110867,330.696564 49.568932,326.310120 49.832798,321.795166 
	C48.562267,321.160248 47.283920,320.427704 45.933037,319.871246 
	C44.420555,319.248199 42.842354,318.784729 41.292747,318.251831 
	C40.714745,320.169098 40.034687,322.064117 39.610794,324.014862 
	C39.449333,324.757874 40.198704,325.743958 39.959328,326.414490 
	C39.591866,327.443787 38.728703,328.296112 38.075890,329.223541 
	C37.561989,328.324982 36.479824,327.309174 36.636627,326.548950 
	C37.192924,323.851868 39.050636,321.187958 36.057495,318.779572 
	C36.572289,318.175873 37.087078,317.572205 36.958042,317.723511 
	C35.869453,314.620392 34.984367,312.097382 34.001244,309.294922 
	C33.733582,309.393341 32.935402,309.431244 32.685589,309.820770 
	C31.222647,312.102020 28.890572,313.609528 27.155201,311.323242 
	C26.090368,309.920349 26.804983,306.713776 27.493420,304.564758 
	C28.139050,302.549377 29.801693,300.859802 31.381523,298.476715 
	C32.623814,298.627686 35.054733,298.923065 38.740486,299.370941 
	C37.861603,295.865997 37.228104,293.401428 36.640347,290.926025 
	C36.556625,290.573456 36.547447,290.037659 36.752098,289.806793 
	C40.075703,286.057526 37.189056,284.667084 33.691952,283.302032 
	C34.671520,278.489899 35.619259,273.834167 36.566998,269.178406 
	C37.102795,269.074341 37.638592,268.970276 38.174389,268.866241 
	C35.589672,266.961151 33.037998,265.008789 30.406912,263.170074 
	C29.000191,262.186981 26.628540,261.761871 29.042107,259.326538 
	C29.233423,259.133453 28.013380,256.732819 27.061121,256.366180 
	C24.157833,255.248383 21.053701,254.661652 18.049269,253.793701 
	C16.149235,253.244797 14.287644,252.562820 12.408809,251.940536 
	C12.569569,251.365723 12.730329,250.790909 12.891088,250.216080 
	C15.075131,250.771774 17.259174,251.327454 18.731693,251.702118 
	C19.843332,249.990875 20.799831,248.518463 21.848951,246.903473 
	C20.642239,245.880569 19.069607,244.547501 16.518616,242.385086 
	C23.459850,242.087982 28.962683,245.974731 35.143265,243.443054 
	C35.870583,243.808914 37.469257,244.613113 38.893379,245.329514 
	C40.744389,241.872635 42.369740,238.837189 44.102486,235.601166 
	C41.996479,232.501968 35.862156,233.349915 34.146107,226.750000 
	C38.765984,229.324890 42.029106,231.558578 45.601685,233.052002 
	C54.141258,236.621750 54.062408,236.345795 59.555450,230.748596 
	C61.694180,228.569290 62.126694,226.948074 60.528675,224.317429 
	C59.715416,222.978607 59.875084,221.048813 59.360893,217.996948 
	C62.548439,222.532654 64.828476,225.777023 67.912163,230.164963 
	C68.107277,226.110092 68.229431,223.571503 68.366043,220.732529 
	C66.601372,220.436478 65.045479,220.175446 61.941040,219.654633 
	C64.524857,218.001862 66.040329,217.032471 68.021469,215.765213 
	C67.205887,214.496964 66.095863,212.770874 64.996315,211.061066 
	C67.431587,206.169342 69.842316,201.326920 72.718430,195.549683 
	C72.379623,194.544327 71.572601,192.149612 71.292877,189.380920 
	C72.881821,188.669479 73.943481,188.332001 75.047607,188.346405 
	C76.434143,190.433990 77.778191,192.169693 80.026703,195.073425 
	C80.026703,191.781509 80.026703,189.836548 80.026703,187.773422 
	C78.579109,187.840225 76.786751,187.922928 74.989014,187.653320 
	C74.978127,186.597015 74.972618,185.893021 74.967102,185.189041 
	C76.001587,184.446045 77.036064,183.703049 78.481110,182.665176 
	C78.895477,183.660370 79.270470,184.561005 80.157745,186.691986 
	C82.539925,184.204117 86.488892,181.699982 86.154099,180.082474 
	C85.514847,176.994019 82.434662,174.410782 80.291481,171.036194 
	C80.486359,169.599182 80.757423,168.743851 81.028488,167.888504 
	C82.164436,168.797073 83.263290,169.757339 84.443466,170.604279 
	C87.625786,172.888000 89.733185,171.999512 90.413795,168.240906 
	C90.563850,167.412247 91.219749,166.675171 91.642715,165.895920 
	C92.361351,166.416214 93.667145,166.893738 93.708664,167.463379 
	C94.170502,173.800583 99.644714,170.848328 101.847160,170.766052 
	C104.706276,170.659271 106.699677,167.114365 105.018944,163.383881 
	C104.829903,162.964279 104.966225,162.398102 105.138054,161.246246 
	C106.551956,159.442795 107.779472,158.293015 109.006981,157.143219 
	C109.006981,157.143219 109.378098,156.940598 109.893753,156.922821 
	C110.801025,156.550064 111.192650,156.195084 111.584267,155.840103 
	C111.100204,155.557693 110.616142,155.275299 110.132080,154.992905 
	C110.605064,153.036118 111.078041,151.079330 111.551018,149.122543 
	C112.269875,149.171631 112.988724,149.220734 113.707573,149.269821 
	C114.012627,151.663132 114.317673,154.056458 114.676132,156.868820 
	C116.225159,157.147064 118.541534,157.563126 121.436707,158.083145 
	C120.462715,159.842163 119.654556,161.301666 118.844162,162.765198 
	C124.288933,165.435669 124.443352,165.366028 131.046539,157.361160 
	C132.746231,157.977600 134.481201,158.606842 137.044205,159.536392 
	C136.177429,152.257355 136.895279,145.435486 131.697021,140.273010 
	C133.455948,138.957230 135.318222,137.586044 137.156967,136.183975 
	C140.728256,133.460846 145.256592,135.487183 145.711563,140.415161 
	C146.135223,145.004288 145.802048,149.663284 145.802048,155.211273 
	C147.821564,154.144913 148.853851,153.599838 149.789307,153.105896 
	C150.982666,154.491653 152.219864,155.928345 153.457077,157.365021 
	C153.955536,157.093124 154.454010,156.821243 154.952484,156.549362 
	C154.581680,155.138275 154.633102,153.345779 153.764557,152.384308 
	C150.568512,148.846237 151.938095,145.144913 153.412125,141.757462 
	C154.050476,140.290405 156.441528,139.585999 159.203064,137.766541 
	C159.203064,135.700989 159.203064,132.065521 159.203064,127.500023 
	C161.650574,125.731041 168.384827,126.798088 167.986252,119.595070 
	C168.469101,120.475128 168.920959,121.373955 169.440811,122.231575 
	C170.784897,124.448944 172.722107,124.999893 174.142227,122.737442 
	C176.580612,118.852768 179.985138,114.799873 180.378754,110.574875 
	C181.098633,102.847801 185.193802,96.244003 186.115234,88.696526 
	C186.396667,86.391418 187.960693,84.242897 189.891052,82.181343 
	C189.891052,83.156487 190.076248,84.174660 189.861267,85.099854 
	C188.365906,91.535271 186.349197,97.875275 184.896820,104.269478 
	C183.159348,111.918816 183.216721,119.978004 182.550537,127.864227 
	C182.498856,128.476059 182.738419,129.207291 183.072556,129.738358 
	C183.925247,131.093628 191.528854,130.554108 192.846085,128.631866 
	C192.824890,128.168060 193.166809,127.834496 193.166809,127.834496 
	C195.118698,125.101280 198.355011,122.528976 198.722321,119.597237 
	C199.277527,115.165627 201.365372,112.255554 204.622452,108.914200 
	C205.007278,110.498283 205.309479,111.742279 205.611679,112.986275 
	C205.947815,113.093719 206.283966,113.201164 206.620102,113.308609 
	C207.446503,109.877251 208.272888,106.445892 208.693848,104.698021 
	C207.363937,101.483414 206.598801,99.633965 205.833679,97.784515 
	C206.314178,97.548882 206.794678,97.313255 207.275177,97.077621 
	C208.556824,98.030426 209.838455,98.983223 211.120102,99.936028 
	C211.039597,99.451378 210.959106,98.966736 210.878616,98.482086 
	C215.716171,97.440353 220.570923,96.469933 225.380020,95.310188 
	C226.695938,94.992851 227.901489,94.154015 229.106430,93.464874 
	C229.795898,93.070541 230.462906,91.993858 231.002213,92.080658 
	C235.816132,92.855453 236.823090,89.748360 237.389557,85.685387 
	C238.719498,88.545013 238.206268,92.877716 242.847092,92.001572 
	C244.410141,91.706482 245.768143,90.325317 247.603592,89.206642 
	C248.083130,89.795189 248.948380,90.857147 249.858109,91.973694 
	C251.068573,88.059937 253.163361,86.440773 256.952118,88.826347 
	C258.828857,90.008049 260.635712,91.312958 262.576904,92.374138 
	C263.366333,92.805687 265.073944,93.126419 265.253357,92.828606 
	C265.964050,91.648918 266.235352,90.204529 268.424042,86.945374 
	C268.858063,89.061340 269.292084,91.177315 269.778717,93.549858 
	C272.431885,88.637932 273.370728,84.565010 275.892517,82.922676 
	C278.172028,81.438133 282.181000,82.609154 286.679413,82.609154 
	C286.773651,81.533981 286.997070,78.984512 287.252106,76.074364 
	C288.333984,76.658028 289.274078,77.165207 289.750214,77.422066 
	C295.465912,75.665268 298.086517,71.722389 297.975983,66.404022 
	C300.616547,66.556885 302.773071,66.681732 305.525970,66.841103 
	C304.146423,62.086151 302.941559,57.933155 301.609375,53.341427 
	C304.141388,53.958946 305.392334,54.264038 307.897552,54.875023 
	C308.113098,59.305302 308.370972,64.605827 308.566284,68.619881 
	C312.273346,68.367722 315.219879,68.167290 318.647095,67.934166 
	C318.647095,66.673271 318.647095,65.254555 319.199463,63.454918 
	C320.943237,63.333328 322.134644,63.592651 323.326050,63.851974 
	C323.907806,63.418785 324.489563,62.985600 325.385193,62.147762 
	C326.184357,61.469353 326.669647,61.195595 327.154968,60.921837 
	C328.090759,62.518871 329.026550,64.115906 330.045685,65.855225 
	C334.807404,63.240978 342.596130,70.015617 346.351501,61.164284 
	C346.453552,62.439182 346.555573,63.714077 346.770111,66.394768 
	C351.073822,64.363525 355.529083,63.287819 358.483215,60.576561 
	C361.416229,57.884716 362.838715,53.547005 365.151215,49.536419 
	C367.242554,51.558758 369.727814,54.174919 372.429901,49.925003 
	C373.243530,51.381454 374.005219,52.744911 374.766907,54.108364 
	C375.131592,54.080723 375.496277,54.053078 375.860962,54.025436 
	C376.191345,52.211582 376.521729,50.397724 377.105865,47.190681 
	C378.991669,49.788673 380.171326,51.393353 381.329163,53.013603 
	C383.242493,55.691063 385.604980,55.537220 386.959381,52.542473 
	C387.940674,50.372768 388.720978,48.112167 390.696899,46.001068 
	C390.812042,48.455425 390.186737,51.327408 391.264709,53.238728 
	C392.214203,54.922199 395.067322,55.531990 397.428223,56.803574 
	C392.548798,60.999714 394.093353,66.314255 395.341980,71.553444 
	C398.138153,71.359650 400.767944,71.177383 403.172668,71.010719 
	C407.094757,74.427444 411.023621,77.850060 415.579163,81.818611 
	C417.220734,78.889114 418.971832,75.764206 421.273682,72.326080 
	C422.499451,72.013298 423.174530,72.013741 423.849579,72.014175 
	C423.849579,75.199486 423.849579,78.384804 423.849579,82.168945 
	C435.477539,74.432549 446.443298,74.782845 455.581512,85.840637 
	C459.890533,82.831963 463.977661,79.978256 468.064758,77.124542 
	C468.343079,77.374229 468.621399,77.623917 468.899719,77.873604 
	C468.675659,78.717087 468.451599,79.560570 468.113586,80.832924 
	C470.444244,80.286835 472.595490,79.782784 475.276917,79.445343 
	C475.951050,79.831177 476.094971,80.050400 476.238922,80.269615 
	C473.242889,83.032967 470.246857,85.796326 467.174927,88.629684 
	C475.159485,89.770355 475.159485,89.770355 478.428314,94.498985 
	C479.615875,93.855164 480.816589,93.204216 481.682129,92.734978 
	C486.296295,96.695335 490.605530,100.393967 495.285828,104.411049 
	C496.104675,103.758430 497.416138,102.713242 499.293091,101.288437 
	C501.675323,100.558937 503.492004,100.209053 505.308685,99.859161 
	C507.579987,101.018547 509.813080,102.261635 512.130554,103.319931 
	C516.970398,105.530090 516.988708,105.490005 518.422241,100.359940 
	C522.741150,105.303146 524.904297,110.862648 524.080811,117.589394 
	C523.915833,118.936996 525.564575,120.506607 526.377014,121.973854 
	C526.863892,121.835365 527.350769,121.696884 527.837708,121.558395 
	C527.332520,123.100777 526.457520,124.636620 526.429993,126.187454 
	C526.404419,127.633453 526.877747,129.947388 527.831116,130.397614 
	C531.299072,132.035294 532.442688,134.996567 533.658875,138.181488 
	C534.302124,139.865845 535.535156,141.324997 536.717834,143.234421 
	C536.337402,144.566940 535.773865,146.540588 535.589783,147.185165 
	C540.025146,149.180954 543.953674,150.948669 547.194946,152.407150 
	C547.025024,155.979507 547.198730,158.723862 546.661316,161.321075 
	C546.317688,162.982056 544.992737,164.472931 543.982666,165.954773 
	C542.706909,167.826385 541.303772,169.611206 539.955627,171.433456 
	C541.784119,172.195251 543.612610,172.957031 546.019348,173.959717 
	C546.598877,177.683899 547.279053,182.054947 548.338684,186.567719 
	C548.718140,186.709473 548.804993,186.670837 548.804993,186.670837 
	C546.057922,186.492783 543.310791,186.314713 539.360535,186.058670 
	C542.520691,188.248642 544.713623,189.768265 547.069397,191.400772 
	C538.460510,196.442566 537.900452,196.388794 533.747925,190.196167 
	C532.864075,190.607529 531.936707,191.039108 531.055664,191.449142 
	C532.442017,194.701416 533.916626,197.752502 535.057373,200.923706 
	C537.270813,207.076645 538.420898,213.233047 533.813110,218.954391 
	C533.506714,219.334808 533.141113,219.746704 533.036072,220.198151 
	C531.451294,227.010422 531.460388,227.012543 524.392212,232.523132 
	C523.506104,230.397644 523.184937,227.585815 521.679749,226.620956 
	C520.317261,225.747559 517.662842,226.889587 515.651855,227.908920 
	C513.179443,225.783646 510.812286,225.774292 509.012268,229.308426 
	C505.268555,225.776062 510.345428,219.022995 504.407715,216.846115 
	C501.877563,222.218903 499.543213,227.175903 497.218628,232.112183 
	C497.734955,237.536682 498.304474,243.520096 498.887299,249.643341 
	C502.974670,250.060455 504.636627,252.501602 503.929810,257.379425 
	C503.618286,259.528992 504.005737,261.779846 503.937744,264.603088 
	C503.649597,265.386902 503.499573,265.552307 503.349548,265.717743 
	C502.527161,265.908447 500.984558,266.103638 500.985687,266.289246 
	C501.044312,275.751099 501.406158,285.213654 501.320099,294.672394 
	C501.288696,298.122375 500.329620,301.588531 499.502014,304.976044 
	C499.397064,305.405670 497.150574,305.938049 496.516754,305.508118 
	C493.102600,303.192108 493.045319,299.626343 492.814270,295.807861 
	C492.050385,283.181976 493.473267,270.355347 489.684357,257.985046 
	C489.022827,255.825211 488.231812,253.705048 486.495361,251.199066 
	C485.949463,253.294312 484.657043,255.524902 485.007477,257.457611 
	C485.828186,261.983551 485.187744,266.278229 484.445099,270.105072 
	C486.498230,270.863953 488.615967,271.347076 490.305389,272.472839 
	C490.751648,272.770203 490.344513,275.578400 489.514526,276.312714 
	C487.610291,277.997345 485.222260,276.924133 482.958618,276.903687 
	C477.481964,276.854340 476.642273,272.567108 474.053009,269.886047 
	C473.525330,269.339691 473.667938,268.145966 473.501556,267.250671 
	C474.448669,267.357452 475.395782,267.464264 477.574036,267.709869 
	C476.572327,264.832977 475.742889,262.374664 474.852264,259.938751 
	C474.578705,259.190552 473.912994,258.527344 473.834137,257.782135 
	C473.749146,256.978851 474.141785,256.124969 474.326050,255.293182 
	C473.348145,256.161469 471.984497,256.843109 471.458618,257.930054 
	C469.071991,262.863068 466.253998,267.750549 468.678619,274.708649 
	C465.911865,273.523346 464.438446,272.892090 461.879395,271.795776 
	C462.744415,273.998871 463.298645,275.410400 463.762695,276.592285 
	C460.740051,275.648499 454.760437,281.308105 453.845245,272.945404 
	C448.289612,273.049133 447.462219,276.518829 448.088623,280.703796 
	C448.563477,283.876251 449.748138,286.949799 450.128326,290.125854 
	C450.309509,291.639740 449.353821,293.289673 448.913086,294.877960 
	C447.585175,293.997314 445.615509,293.414642 445.043640,292.182983 
	C442.900543,287.567474 441.214294,282.739868 439.862976,279.285614 
	C442.225922,275.354462 443.926636,272.525055 445.923248,269.203400 
	C442.565918,267.353516 439.708435,265.779022 436.850952,264.204559 
	C436.933990,264.860992 437.017029,265.517426 437.100067,266.173828 
	C433.623016,269.169861 430.145966,272.165894 426.347626,275.438812 
	C425.248993,273.222321 424.210358,271.126923 423.171753,269.031525 
	C422.759064,269.088501 422.346375,269.145477 421.933685,269.202454 
	C421.933685,271.568115 422.290192,274.010162 421.805603,276.272003 
	C421.493927,277.726654 419.945435,278.916290 418.667755,279.999329 
	C416.746643,284.685028 427.719788,285.369171 421.884918,291.642426 
	C426.609467,292.647980 427.418762,294.136292 425.652618,298.976227 
	C424.107330,303.211090 424.636322,309.338806 426.707031,313.366638 
	C428.139343,316.152649 433.804962,316.680511 437.469482,318.444824 
	C438.770050,319.071014 439.747314,320.368713 440.872192,321.359894 
	C440.554016,321.762726 440.235840,322.165558 439.917633,322.568420 
	C436.503204,321.185455 433.153473,319.593506 429.646973,318.507965 
	C427.900360,317.967255 425.570862,318.969696 424.011169,318.220490 
	C414.724731,313.759583 405.560791,309.039825 396.414429,304.293884 
	C393.879608,302.978607 392.093842,303.200806 390.759216,305.845764 
	C390.209229,306.935699 389.491028,307.940765 388.187683,309.014648 
	C387.005188,309.532593 386.484344,310.020264 385.963501,310.507935 
	C380.942627,315.280212 377.612579,316.091522 369.030029,314.606995 
	C368.044922,319.210327 366.387024,323.813934 366.362030,328.426361 
	C366.349854,330.667389 368.929382,333.758362 371.152893,334.994537 
	C375.262878,337.279510 380.010498,338.394745 384.408203,340.202423 
	C385.408142,340.613403 386.064056,341.861206 386.878326,342.723846 
	C386.647461,343.099701 386.416595,343.475525 386.185730,343.851379 
	C376.800903,340.868713 367.416077,337.886017 358.189178,334.953552 
	C359.903687,338.888489 361.933044,343.545990 363.962372,348.203461 
	C363.509033,348.427002 363.055695,348.650513 362.602356,348.874023 
	C361.691254,347.308136 360.907349,345.648193 359.836548,344.200439 
	C358.533386,342.438660 356.988708,340.855530 355.548492,339.195129 
	C353.141357,341.385925 350.203918,343.237244 348.509552,345.884277 
	C347.337830,347.714783 347.699738,350.643951 347.701416,353.081940 
	C347.704132,357.002533 347.536255,360.676636 343.391510,362.775146 
	C342.703735,363.123413 342.241730,364.266083 342.023132,365.129669 
	C341.257965,368.152069 341.197052,371.482239 339.867950,374.207489 
	C336.263550,381.598358 340.539398,388.187073 341.479340,395.073334 
	C342.098297,399.608215 343.756927,403.993866 344.580597,408.513641 
	C344.770447,409.555634 343.447876,410.873230 342.821289,412.063995 
	C342.032166,411.190735 340.704193,410.409180 340.537628,409.430023 
	C338.935608,400.014038 337.547760,390.561859 336.053589,381.127167 
	C335.691986,378.843811 335.546204,376.420135 334.642212,374.348480 
	C331.812653,367.864044 328.668213,361.516998 325.510742,354.830780 
	C319.520020,359.950470 319.224426,348.442047 313.658539,351.566772 
	C314.218994,354.039917 314.808533,356.641357 315.398071,359.242828 
	C314.932587,359.451324 314.467133,359.659821 314.001678,359.868347 
	C312.714569,357.603546 311.604675,355.209106 310.076599,353.120667 
	C309.095795,351.780243 307.498962,350.890594 306.178284,349.798889 
	C305.355652,351.308441 303.848236,352.831879 303.878479,354.324158 
	C303.919006,356.326935 305.093414,358.327545 305.880554,360.289185 
	C306.926422,362.895569 308.068115,365.463562 308.970184,368.636627 
	C308.630432,369.374115 308.489136,369.522980 308.347870,369.671875 
	C306.348877,366.531464 304.349884,363.391022 302.352448,360.253082 
	C295.276978,363.529175 292.927277,368.420685 293.575775,375.680267 
	C293.812439,378.329468 291.135193,381.262756 289.702454,384.022369 
	C289.286591,384.823395 288.280060,385.387024 288.046753,386.203125 
	C284.971619,396.959381 283.744324,407.612335 287.771484,418.596191 
	C289.433777,423.129974 289.185547,428.364227 289.903137,433.639954 
	C289.250000,434.000000 288.500000,434.000000 287.375000,434.000000 
	C285.314850,426.280243 283.400177,418.600861 282.032532,410.825256 
	C281.239777,406.318054 282.230560,401.353302 280.815948,397.131500 
	C278.423553,389.991699 274.760376,383.277710 271.529022,376.158905 
	C265.252228,380.896393 265.383881,370.811493 260.208191,372.473572 
	C259.463684,374.282227 258.533234,376.542725 257.602753,378.803223 
	C257.506378,370.170593 259.016052,361.049622 249.710373,354.815155 
	C241.693375,362.251282 236.010727,371.998230 229.356705,381.396881 
	C229.895187,378.673920 230.433655,375.950989 230.972122,373.228027 
	C227.180740,375.606232 226.358551,378.704254 227.686951,382.848053 
	C228.993607,386.924103 230.056107,391.149475 230.574005,395.388947 
	C231.192032,400.447968 228.098602,405.057861 224.745636,405.071442 
	C219.723999,405.091827 215.655411,399.827972 215.939240,394.454285 
	C216.257462,388.429596 216.012375,382.375122 216.012375,376.736267 
	C214.073013,377.038696 211.040070,377.968201 210.788773,377.476379 
	C209.220642,374.407410 208.274475,371.020660 207.211563,367.993561 
	C204.479233,367.098846 201.241440,366.038635 197.741913,364.892700 
	C195.949966,365.872559 193.707626,367.098663 190.681732,368.753235 
	C191.146698,370.938904 192.048981,373.703918 192.203995,376.510193 
	C192.285767,377.990540 191.064148,379.542908 190.431030,381.062744 
	C189.174164,380.179688 187.334686,379.568756 186.770920,378.361908 
	C185.151749,374.895721 183.659302,371.272583 182.855377,367.551575 
	C182.092712,364.021606 182.263565,360.289948 181.998047,356.253632 
	C177.510956,358.476532 170.369751,353.619110 167.648254,362.049774 
	C167.380371,360.736938 167.341110,359.319427 166.797668,358.132782 
	C165.616318,355.553375 164.795090,353.142395 160.600098,355.155579 
	C157.462585,356.661316 153.327682,356.088715 149.924850,356.414032 
	C148.058517,360.395996 146.180801,364.402191 144.303101,368.408386 
	C143.965820,368.304626 143.628555,368.200897 143.291275,368.097168 
	C143.291275,365.077942 143.291275,362.058746 143.291275,358.925079 
	C138.236465,358.181976 138.474823,369.377106 131.441162,362.924927 
	C130.712769,366.264954 130.127319,368.949554 129.552948,372.284363 
	C129.529282,373.304932 129.494537,373.675293 129.459793,374.045624 
M406.537415,296.946472 
	C405.542267,297.156158 404.547119,297.365814 403.551971,297.575470 
	C411.422546,301.285248 413.565948,312.321472 424.762451,312.919250 
	C423.160370,305.850281 421.721283,299.500366 419.998505,291.898743 
	C417.069092,292.940033 414.858643,293.673004 412.689636,294.512939 
	C410.857697,295.222321 409.073822,296.055817 406.537415,296.946472 
M134.618652,347.449249 
	C130.668198,348.664490 130.190567,350.075226 131.548248,355.676727 
	C135.033157,353.640045 138.620636,351.543427 142.208099,349.446808 
	C142.110092,348.989563 142.012070,348.532349 141.914047,348.075104 
	C139.549622,348.075104 137.185196,348.075104 134.618652,347.449249 
M81.544495,335.688141 
	C81.651932,337.403931 81.759377,339.119720 81.886086,341.143158 
	C88.224937,335.226593 88.297935,334.429138 83.145378,326.986694 
	C82.605904,329.877075 82.138969,332.378815 81.544495,335.688141 
M64.081139,319.045227 
	C62.199493,321.609833 60.317848,324.174438 58.279800,326.952240 
	C62.477791,328.475708 67.053055,326.073883 66.846832,322.907288 
	C66.745308,321.348419 65.205925,319.883148 64.081139,319.045227 
M76.367218,195.121719 
	C76.063042,195.427475 75.758865,195.733231 75.454697,196.039001 
	C75.813728,196.215042 76.172760,196.391083 76.531792,196.567139 
	C76.653877,196.099899 76.775955,195.632675 76.367218,195.121719 
z"/>
<path fill="url(#grad1)" opacity="1.000000" stroke="none" 
	d="
M0.999997,189.399994 
	C3.254128,187.740036 5.508263,186.480087 7.762397,185.220123 
	C8.357880,185.643829 8.953362,186.067520 9.548845,186.491211 
	C8.812727,189.094955 8.367030,191.856613 7.106391,194.175156 
	C6.839976,194.665161 3.591007,193.533493 1.358133,193.074509 
	C1.000000,191.933334 1.000000,190.866653 0.999997,189.399994 
z"/>
<path fill="url(#grad1)" opacity="1.000000" stroke="none" 
	d="
M577.000000,112.571533 
	C574.986084,113.203400 572.556946,114.029060 572.832397,110.501404 
	C572.995911,108.407249 572.715637,105.711296 576.664795,107.036003 
	C577.000000,108.714355 577.000000,110.428719 577.000000,112.571533 
z"/>
<path fill="url(#grad1)" opacity="1.000000" stroke="none" 
	d="
M270.594635,71.153893 
	C270.594635,71.153893 270.240997,71.233994 270.121094,70.707840 
	C269.669495,69.227989 269.337860,68.274300 269.006195,67.320602 
	C268.271515,67.702515 267.536804,68.084427 266.802124,68.466339 
	C265.407257,66.426720 264.012390,64.387100 262.102173,62.358772 
	C261.468048,61.398048 261.074646,60.353966 261.305603,59.473694 
	C261.550629,58.539726 262.388428,57.761280 262.967377,56.914921 
	C263.573547,52.873604 264.179718,48.832287 265.155457,44.277016 
	C265.774292,43.558929 265.932648,43.299332 266.000153,42.984268 
	C267.597046,42.710972 269.193939,42.437683 271.637146,42.019554 
	C276.282867,37.150478 282.345459,38.382538 287.897247,46.294842 
	C288.723785,47.472855 289.313110,48.817314 289.889252,50.820705 
	C289.635864,52.927727 289.505463,54.298809 289.270630,55.581432 
	C289.166199,55.492977 289.373535,55.314316 289.305908,55.697136 
	C289.868134,56.717514 290.497955,57.355072 291.127808,57.992630 
	C291.105560,58.744755 291.083282,59.496880 290.653320,60.702934 
	C289.866150,62.526844 289.486725,63.896812 289.107269,65.266785 
	C289.107269,65.266785 289.256927,65.628052 288.857361,65.684258 
	C284.232391,64.729362 284.080933,68.097496 283.175171,70.654839 
	C283.047119,70.791252 282.919067,70.927666 282.436462,70.765976 
	C281.587616,70.220833 281.093292,69.973801 280.598999,69.726761 
	C280.399963,70.496132 280.200958,71.265503 280.001953,72.034866 
	C278.478119,72.287872 276.954285,72.540871 275.073303,72.143311 
	C273.342346,71.379799 271.968475,71.266846 270.594635,71.153893 
M269.483093,65.585907 
	C269.483093,65.585907 269.418701,65.477203 269.483093,65.585907 
z"/>
<path fill="url(#grad1)" opacity="1.000000" stroke="none" 
	d="
M475.627747,79.261856 
	C476.892853,77.677582 478.337341,76.443405 479.781830,75.209236 
	C479.385620,74.604179 478.989410,73.999130 478.593201,73.394081 
	C476.453369,74.349319 474.313568,75.304550 472.202881,76.246788 
	C471.739166,73.806396 471.161987,70.768852 470.528473,67.434937 
	C470.962677,67.188889 472.337372,66.874176 472.885040,66.025681 
	C477.040588,59.587074 479.453278,59.563866 483.587738,66.336693 
	C484.919098,66.054008 486.472107,66.020142 487.744659,65.405556 
	C495.388153,61.713978 503.766541,67.045517 503.014984,75.451599 
	C502.675079,79.253326 502.549103,84.068062 500.265808,86.439964 
	C497.658875,89.148048 492.750519,90.780479 488.856293,90.754791 
	C485.645996,90.733612 482.404175,87.694443 479.327637,85.752968 
	C478.971710,85.528351 479.573944,83.767578 479.749695,82.721992 
	C480.116974,80.536682 480.027405,78.841408 476.648529,80.204262 
	C476.094971,80.050400 475.951050,79.831177 475.627747,79.261856 
z"/>
<path fill="url(#grad1)" opacity="1.000000" stroke="none" 
	d="
M67.256104,159.204391 
	C53.604988,151.487488 39.925217,143.820206 26.345732,135.979233 
	C24.940363,135.167755 24.131763,133.322754 23.617033,131.396088 
	C31.273338,136.301483 41.149349,135.732574 47.786095,142.537170 
	C50.500748,145.320465 54.597973,146.755280 58.127701,148.839859 
	C62.441975,144.401703 58.768478,139.995514 59.504883,135.448502 
	C60.189732,135.033142 60.526974,135.021393 60.864220,135.009644 
	C62.697643,140.567886 65.788879,145.977554 62.970001,152.480469 
	C64.913826,154.195892 67.099190,156.124466 68.832932,158.506775 
	C68.006233,159.041794 67.631172,159.123093 67.256104,159.204391 
z"/>
<path fill="url(#grad1)" opacity="1.000000" stroke="none" 
	d="
M534.809448,123.303131 
	C534.888184,122.738487 534.852783,122.559998 534.900513,122.407608 
	C535.894104,119.238243 536.897156,116.071831 537.898254,112.904831 
	C540.157166,114.344231 542.416138,115.783630 543.798096,116.664230 
	C546.787598,114.468056 549.487122,111.586113 552.788940,110.441658 
	C554.419067,109.876633 556.090271,118.835854 554.499939,121.811638 
	C553.025879,124.569786 551.032349,124.905861 547.566406,123.590813 
	C545.266541,126.537384 543.565063,130.758957 541.003662,131.368713 
	C538.861267,131.878708 535.713379,128.165024 532.810059,126.184753 
	C533.572021,125.201324 534.153076,124.451378 534.809448,123.303131 
z"/>
<path fill="url(#grad1)" opacity="1.000000" stroke="none" 
	d="
M518.717773,71.223648 
	C523.485046,79.435562 523.009033,86.268898 517.489807,89.828339 
	C516.321167,90.582039 513.612976,90.824738 512.877808,90.070709 
	C507.993469,85.061188 505.294800,78.921921 506.196716,71.851067 
	C506.457031,69.810356 508.567474,68.005646 510.462830,66.127602 
	C511.019440,71.926659 514.117737,72.463158 518.717773,71.223648 
z"/>
<path fill="url(#grad1)" opacity="1.000000" stroke="none" 
	d="
M528.003784,248.008438 
	C527.841370,252.308792 527.786438,256.617859 527.439575,260.903290 
	C527.354553,261.953644 526.474915,263.567749 525.672302,263.768097 
	C524.733643,264.002441 522.898926,263.273468 522.467163,262.438171 
	C520.945984,259.495239 519.936584,256.292786 518.567871,253.263412 
	C518.052429,252.122559 517.139587,251.140305 516.313782,250.165405 
	C514.963867,248.571671 512.344971,247.002167 512.396790,245.495865 
	C512.496826,242.585327 514.119141,239.765228 518.898804,240.601959 
	C519.247375,241.933884 519.561218,243.802643 520.242432,245.526215 
	C520.799561,246.935776 521.794861,248.172165 522.595886,249.485336 
	C523.412415,247.945770 525.142578,246.228912 524.884216,244.897964 
	C523.874939,239.697540 526.632080,236.186996 529.145935,232.206497 
	C533.249329,237.293839 533.060181,239.087662 528.228516,242.419479 
	C528.801636,243.039566 529.354736,243.638016 529.935059,244.815369 
	C529.076599,245.531525 528.190979,245.668777 527.074341,245.841827 
	C527.407227,246.617828 527.705505,247.313126 528.003784,248.008438 
z"/>
<path fill="url(#grad1)" opacity="1.000000" stroke="none" 
	d="
M467.237976,289.138458 
	C467.467072,288.153320 467.676636,287.577576 468.432922,285.500061 
	C469.206299,288.634094 469.928528,290.370941 470.020386,292.140503 
	C470.404785,299.548462 470.593109,306.966553 470.873535,314.380127 
	C470.910797,315.365051 470.684052,316.723175 471.224823,317.267914 
	C475.287506,321.360565 473.241211,325.897400 472.294708,330.303314 
	C472.066803,331.364044 471.025177,332.249969 470.357758,333.216278 
	C469.531525,332.382416 468.115417,331.632690 467.982330,330.699951 
	C467.441437,326.908081 467.289703,323.060394 467.009277,319.232208 
	C466.985413,318.906433 467.088654,318.573425 467.102112,318.242523 
	C467.301147,313.354858 466.381317,308.695129 468.480499,303.556915 
	C470.055237,299.702454 467.779755,294.274994 467.237976,289.138458 
z"/>
<path fill="url(#grad1)" opacity="1.000000" stroke="none" 
	d="
M318.208618,59.977737 
	C317.917145,52.535141 317.723999,45.086494 317.267487,37.654034 
	C317.147980,35.708881 317.804474,32.371765 313.635406,33.661247 
	C313.343719,33.751465 311.981293,32.105610 312.151245,31.685505 
	C313.353149,28.714222 314.568390,25.677795 316.351746,23.050699 
	C316.972290,22.136564 319.630035,21.601198 320.611938,22.172974 
	C322.067169,23.020346 323.778442,25.040379 323.727539,26.503725 
	C323.639832,29.026730 322.269897,31.502163 321.458740,34.004276 
	C321.058899,35.237595 320.705383,36.485931 320.178528,38.525925 
	C320.035736,40.590549 320.045288,41.856724 320.054810,43.122894 
	C320.346222,48.507256 320.637634,53.891617 320.525177,59.619274 
	C319.483765,59.967628 318.846191,59.972683 318.208618,59.977737 
z"/>
<path fill="url(#grad1)" opacity="1.000000" stroke="none" 
	d="
M108.665871,157.015839 
	C107.779472,158.293015 106.551956,159.442795 105.126778,160.868362 
	C102.224068,161.565399 99.536156,165.187973 96.809036,161.197922 
	C96.106209,160.169617 95.106308,159.193237 94.835190,158.052246 
	C94.261055,155.636017 93.969978,153.136047 93.761467,150.653732 
	C93.523239,147.817581 94.572220,145.887924 97.731453,145.453415 
	C100.945541,145.011353 101.289017,146.646484 101.177872,149.261780 
	C101.151520,149.881882 102.817719,150.573898 103.705368,151.232834 
	C103.985077,150.894470 104.264786,150.556107 104.544495,150.217728 
	C105.804581,152.441299 107.064674,154.664886 108.665871,157.015839 
z"/>
<path fill="url(#grad1)" opacity="1.000000" stroke="none" 
	d="
M175.024246,388.208740 
	C175.346680,392.517487 175.983856,396.817505 175.010696,400.715515 
	C174.431824,403.034088 171.319626,404.720154 169.372757,406.664246 
	C167.921326,405.582428 167.077332,404.897980 166.179550,404.293457 
	C161.432617,401.097137 161.476120,395.543915 166.395325,392.516357 
	C169.061142,390.875641 171.900482,389.516846 175.024246,388.208740 
z"/>
<path fill="url(#grad1)" opacity="1.000000" stroke="none" 
	d="
M121.201996,366.130951 
	C121.621399,365.866119 121.840652,365.874603 122.335968,366.301178 
	C121.970863,368.645905 121.329704,370.572540 120.684052,372.512665 
	C123.444183,373.063873 125.758072,373.525940 128.071960,373.988037 
	C128.071960,373.988037 127.988197,374.000824 127.992142,373.958466 
	C128.063400,374.751038 127.946602,375.655060 128.229431,376.409149 
	C129.561569,379.961090 128.872253,382.955139 125.938583,385.363281 
	C122.723541,388.002472 120.120216,385.842590 117.393555,384.263123 
	C113.173492,381.818542 116.286964,378.425079 116.721069,375.852112 
	C117.277184,372.555939 119.498215,369.540619 121.201996,366.130951 
z"/>
<path fill="url(#grad1)" opacity="1.000000" stroke="none" 
	d="
M423.953278,71.613129 
	C423.174530,72.013741 422.499451,72.013298 421.486847,72.013847 
	C421.711121,68.480438 422.272919,64.946037 422.950012,60.686615 
	C420.558594,62.072636 418.626373,63.192513 416.244476,64.573021 
	C417.641968,58.862797 418.996826,54.158451 424.473633,51.661938 
	C426.063477,50.937237 426.589722,47.875824 427.599884,45.883732 
	C428.461884,44.183781 429.318695,42.481163 430.177795,40.779732 
	C430.668518,40.935333 431.159271,41.090935 431.649994,41.246532 
	C430.167877,46.925102 428.658813,52.596825 427.212372,58.284458 
	C426.119141,62.583138 425.105865,66.902138 423.953278,71.613129 
z"/>
<path fill="url(#grad1)" opacity="1.000000" stroke="none" 
	d="
M546.037354,233.088226 
	C547.147766,238.308777 548.304199,243.102112 548.965088,247.962799 
	C549.134583,249.209732 547.740173,250.669266 547.064209,252.031128 
	C545.907837,251.316147 544.143860,250.865891 543.697571,249.841553 
	C541.457825,244.700668 539.562683,239.409668 537.150085,233.141449 
	C540.728516,232.955185 543.313782,232.820602 546.037354,233.088226 
z"/>
<path fill="url(#grad1)" opacity="1.000000" stroke="none" 
	d="
M558.018738,113.284660 
	C554.800049,107.320107 555.672058,104.055077 561.658752,98.444260 
	C565.921936,101.622269 567.490417,108.515953 564.234558,112.344452 
	C563.186096,113.577370 560.297180,113.245193 558.018738,113.284660 
z"/>
<path fill="url(#grad1)" opacity="1.000000" stroke="none" 
	d="
M160.982758,379.218750 
	C158.884262,377.716553 156.304062,376.513824 155.785080,374.716064 
	C155.436249,373.507721 157.667801,370.815796 159.346817,369.934998 
	C161.822906,368.635986 163.584946,370.209198 163.830597,373.007355 
	C163.957230,374.449829 163.852844,375.912598 163.852844,377.347717 
	C165.465286,378.053650 167.826752,378.424774 168.059326,379.338074 
	C168.449127,380.868835 167.482117,382.745117 167.086075,384.475983 
	C165.546799,384.097076 163.675461,384.120850 162.573242,383.211945 
	C161.690338,382.483887 161.741577,380.623108 160.982758,379.218750 
z"/>
<path fill="url(#grad1)" opacity="1.000000" stroke="none" 
	d="
M219.594696,65.466461 
	C216.433792,64.522835 212.819778,63.735043 213.589691,59.697803 
	C213.978668,57.658169 215.625137,55.348846 217.383255,54.270470 
	C218.441666,53.621277 221.858765,54.631802 222.355286,55.734383 
	C223.228882,57.674259 222.968857,60.305405 222.591583,62.547474 
	C222.417007,63.584915 220.849487,64.387955 219.594696,65.466461 
z"/>
<path fill="url(#grad1)" opacity="1.000000" stroke="none" 
	d="
M163.058167,109.032166 
	C166.204559,113.168190 165.682205,114.911888 160.215851,119.872650 
	C158.301956,118.831062 156.387878,117.787781 154.391190,116.699471 
	C154.670471,114.130852 154.885330,111.082161 155.413620,108.088799 
	C155.537781,107.385231 156.720337,106.868439 157.415970,106.265717 
	C158.219620,107.456490 159.023270,108.647263 159.928940,109.989189 
	C160.414780,109.809822 161.542496,109.393478 163.058167,109.032166 
z"/>
<path fill="url(#grad1)" opacity="1.000000" stroke="none" 
	d="
M60.915611,134.603577 
	C60.526974,135.021393 60.189732,135.033142 59.599594,135.034164 
	C58.430546,132.231583 57.514381,129.439728 56.643307,126.785278 
	C55.270828,126.785278 53.999733,126.785278 52.728634,126.785278 
	C53.021133,125.505058 53.524117,124.230659 53.559654,122.943344 
	C53.621929,120.687256 53.487816,118.414314 53.265049,116.165359 
	C53.082035,114.317726 52.651043,112.494667 52.329964,110.660713 
	C52.898518,110.518822 53.467072,110.376923 54.035625,110.235031 
	C56.346085,118.222527 58.656540,126.210014 60.915611,134.603577 
z"/>
<path fill="url(#grad1)" opacity="1.000000" stroke="none" 
	d="
M320.373413,42.862480 
	C320.045288,41.856724 320.035736,40.590549 320.147156,38.861599 
	C321.845703,37.233212 323.423340,36.067604 325.076172,34.846420 
	C326.549072,36.211376 328.834839,38.197235 330.903870,40.387794 
	C331.219055,40.721474 330.778992,42.228527 330.258423,42.804024 
	C328.781799,44.436352 327.082458,45.867191 325.353790,47.487053 
	C323.927521,45.992485 322.309753,44.297276 320.373413,42.862480 
z"/>
<path fill="url(#grad1)" opacity="1.000000" stroke="none" 
	d="
M486.824249,21.383085 
	C487.465515,24.791059 486.715240,27.546692 483.354370,27.481380 
	C481.567230,27.446651 478.835968,25.607046 478.334381,24.014215 
	C477.835266,22.429123 479.038879,19.271990 480.485565,18.339350 
	C483.003204,16.716293 485.570831,17.860039 486.824249,21.383085 
z"/>
<path fill="url(#grad1)" opacity="1.000000" stroke="none" 
	d="
M357.259583,19.664764 
	C356.847626,17.349752 355.973145,14.590989 356.977417,13.337404 
	C357.954559,12.117727 361.317413,11.524476 362.815033,12.279053 
	C365.765198,13.765494 365.137970,16.748093 363.518768,19.149651 
	C361.946411,21.481661 359.953644,22.638388 357.259583,19.664764 
z"/>
<path fill="url(#grad1)" opacity="1.000000" stroke="none" 
	d="
M548.689331,146.320618 
	C547.992798,145.249908 547.167480,144.125092 547.426880,143.375549 
	C548.264832,140.953766 549.501587,138.669968 550.746460,135.983841 
	C554.241882,136.337418 556.027588,138.601440 555.727051,142.133423 
	C555.391418,146.078812 552.697266,147.189362 548.689331,146.320618 
z"/>
<path fill="url(#grad1)" opacity="1.000000" stroke="none" 
	d="
M253.207336,69.721710 
	C253.585648,70.563568 253.916183,70.988747 253.995590,71.456551 
	C254.437943,74.062584 254.451508,77.031715 251.100128,76.934731 
	C249.692825,76.894005 247.658554,74.263168 247.152145,72.460648 
	C246.137741,68.850060 249.950012,64.468552 253.403351,64.456429 
	C253.283585,66.077217 253.163589,67.700966 253.207336,69.721710 
z"/>
<path fill="url(#grad1)" opacity="1.000000" stroke="none" 
	d="
M249.395264,46.709991 
	C246.862320,46.555969 244.286652,45.974014 241.710999,45.392059 
	C242.872498,43.222439 243.788666,40.852257 245.317093,38.982597 
	C245.922546,38.241978 248.785828,38.075325 249.082199,38.569771 
	C250.510178,40.952103 252.228378,43.636799 249.395264,46.709991 
z"/>
<path fill="url(#grad1)" opacity="1.000000" stroke="none" 
	d="
M240.026459,61.041176 
	C241.672150,61.018227 243.982605,60.893852 244.100159,61.343174 
	C244.822296,64.103462 245.048706,66.993439 245.440125,69.840248 
	C244.812515,69.949326 244.184906,70.058403 243.557281,70.167480 
	C243.010818,67.950302 242.464355,65.733131 241.898499,63.437286 
	C234.960983,63.972073 236.426544,69.536232 235.612732,74.064545 
	C232.569702,68.383507 233.978012,64.483665 240.026459,61.041176 
z"/>
<path fill="url(#grad1)" opacity="1.000000" stroke="none" 
	d="
M505.177673,99.585091 
	C503.492004,100.209053 501.675323,100.558937 499.466064,100.945488 
	C498.344452,100.824364 497.436523,100.886360 496.920685,100.466553 
	C495.517639,99.324654 493.277649,98.002960 493.246613,96.707520 
	C493.212372,95.280151 495.267426,93.802673 496.412354,92.347015 
	C497.731781,93.514313 499.051178,94.681602 500.755066,96.332382 
	C501.886078,97.176254 502.632568,97.536636 503.379089,97.897026 
	C503.934967,98.368355 504.490814,98.839691 505.177673,99.585091 
z"/>
<path fill="url(#grad1)" opacity="1.000000" stroke="none" 
	d="
M262.608612,57.035976 
	C262.388428,57.761280 261.550629,58.539726 261.305603,59.473694 
	C261.074646,60.353966 261.468048,61.398048 261.768219,62.621246 
	C260.448853,63.388988 258.948090,63.905563 257.447327,64.422134 
	C256.912689,62.161892 255.896881,59.877575 256.008301,57.649639 
	C256.085815,56.100067 257.711761,54.627945 258.809326,52.857746 
	C259.952301,54.285992 261.101074,55.721512 262.608612,57.035976 
z"/>
<path fill="url(#grad1)" opacity="1.000000" stroke="none" 
	d="
M427.933655,278.986450 
	C429.217072,277.843353 430.387360,277.091675 431.546234,276.347321 
	C434.189941,281.019897 434.189941,281.019897 426.105255,287.650574 
	C426.677032,284.893005 427.248810,282.135468 427.933655,278.986450 
z"/>
<path fill="url(#grad1)" opacity="1.000000" stroke="none" 
	d="
M386.287048,310.733032 
	C386.484344,310.020264 387.005188,309.532593 387.828949,309.050903 
	C388.978149,310.699280 389.980133,312.283264 390.624329,314.001434 
	C391.199341,315.535248 392.122925,318.257751 391.592560,318.636902 
	C390.060303,319.732239 387.872345,319.910278 385.941833,320.448517 
	C385.759827,318.803070 385.352905,317.142731 385.460846,315.516541 
	C385.562958,313.978394 386.205627,312.476135 386.287048,310.733032 
z"/>
<path fill="url(#grad1)" opacity="1.000000" stroke="none" 
	d="
M175.385330,367.534668 
	C173.564606,369.766998 171.919464,371.738617 170.014664,373.415161 
	C169.680878,373.708923 167.428574,372.524506 167.457047,372.426117 
	C168.262772,369.640167 169.049835,366.809845 170.311066,364.215881 
	C170.749054,363.315002 172.433823,363.020386 174.154602,362.138580 
	C174.675400,364.128021 175.074036,365.650848 175.385330,367.534668 
z"/>
<path fill="url(#grad1)" opacity="1.000000" stroke="none" 
	d="
M553.284851,228.123550 
	C558.243896,226.635986 560.693970,227.708252 559.758606,230.763351 
	C559.257507,232.399933 556.898926,234.933670 555.968445,234.701218 
	C553.047791,233.971588 551.405396,231.679153 553.284851,228.123550 
z"/>
<path fill="url(#grad1)" opacity="1.000000" stroke="none" 
	d="
M545.618774,59.362171 
	C544.863159,58.730118 544.004333,58.141777 544.092651,57.793159 
	C544.666443,55.525906 545.446167,53.310760 546.158447,51.078556 
	C547.488708,52.047752 549.668762,52.801590 549.979736,54.029068 
	C550.724426,56.967682 549.995972,59.678730 545.618774,59.362171 
z"/>
<path fill="url(#grad1)" opacity="1.000000" stroke="none" 
	d="
M52.829201,179.540985 
	C54.930244,180.983429 56.780781,182.640533 58.809269,184.457001 
	C53.999008,188.181885 50.917316,181.196289 46.503819,183.485733 
	C46.475819,182.976059 46.447819,182.466385 46.419819,181.956711 
	C48.472778,181.223022 50.525738,180.489334 52.829201,179.540985 
M51.987873,180.464096 
	C52.200588,180.532700 52.413307,180.601303 52.626026,180.669907 
	C52.551327,180.452530 52.476627,180.235168 51.987873,180.464096 
z"/>
<path fill="url(#grad1)" opacity="1.000000" stroke="none" 
	d="
M132.037613,406.131439 
	C130.156387,406.164154 127.755241,406.537140 127.336769,405.793884 
	C126.686607,404.639038 126.830856,401.788666 127.623512,401.318695 
	C129.521317,400.193604 131.993256,400.036896 135.410812,399.201477 
	C134.033188,402.305634 133.219757,404.138519 132.037613,406.131439 
z"/>
<path fill="url(#grad1)" opacity="1.000000" stroke="none" 
	d="
M481.468658,54.533783 
	C480.310394,52.779362 479.032166,51.275246 478.819733,49.633224 
	C478.724731,48.899170 480.751282,47.223244 481.848083,47.193523 
	C482.904968,47.164879 485.053680,49.101238 484.906860,49.492039 
	C484.203430,51.364292 482.883636,53.004971 481.468658,54.533783 
z"/>
<path fill="url(#grad1)" opacity="1.000000" stroke="none" 
	d="
M557.958496,175.002106 
	C554.575806,176.608887 552.869751,174.554581 552.896606,172.243835 
	C552.933289,169.084717 555.039917,167.271561 559.410095,168.538635 
	C559.028198,170.616989 558.644226,172.706924 557.958496,175.002106 
z"/>
<path fill="url(#grad1)" opacity="1.000000" stroke="none" 
	d="
M267.783997,38.940388 
	C264.498199,39.270973 262.505859,37.730404 263.519806,35.093159 
	C264.191284,33.346649 266.849609,32.364010 268.618439,31.039400 
	C269.208923,31.506723 269.799377,31.974047 270.389862,32.441368 
	C269.649261,34.561848 268.908630,36.682327 267.783997,38.940388 
z"/>
<path fill="url(#grad1)" opacity="1.000000" stroke="none" 
	d="
M68.197166,365.361145 
	C69.263069,364.907959 70.189301,364.901154 71.463242,364.919342 
	C71.353271,368.622833 70.895592,372.301300 70.437904,375.979767 
	C69.895470,375.964935 69.353043,375.950104 68.810608,375.935242 
	C68.559570,372.559326 68.308533,369.183411 68.197166,365.361145 
z"/>
<path fill="url(#grad1)" opacity="1.000000" stroke="none" 
	d="
M163.410431,92.614883 
	C160.337570,91.495529 157.591736,90.609909 154.896011,89.591721 
	C154.398605,89.403839 153.834610,88.702217 153.792297,88.196632 
	C153.751251,87.706261 154.599777,86.698059 154.619034,86.708733 
	C158.124573,88.651314 161.590836,90.664742 165.058517,92.675613 
	C164.623917,92.718056 164.189316,92.760490 163.410431,92.614883 
z"/>
<path fill="url(#grad1)" opacity="1.000000" stroke="none" 
	d="
M516.883118,287.449646 
	C516.645508,286.326599 516.499512,285.552094 516.329041,284.647247 
	C518.309937,285.710846 520.117859,286.681580 521.563599,287.457855 
	C521.563599,289.909760 521.563599,292.300201 521.563599,296.156891 
	C520.303284,294.272644 519.511475,293.278564 518.931091,292.173431 
	C518.189758,290.761902 517.619019,289.260742 516.883118,287.449646 
z"/>
<path fill="url(#grad1)" opacity="1.000000" stroke="none" 
	d="
M436.626007,38.216820 
	C437.580139,38.386505 438.518280,38.587559 438.792114,39.126286 
	C439.545929,40.609364 440.021423,42.233913 440.607025,43.802513 
	C439.227448,43.378521 437.835876,42.989723 436.470642,42.523693 
	C432.900726,41.305065 434.944000,39.833717 436.626007,38.216820 
z"/>
<path fill="url(#grad1)" opacity="1.000000" stroke="none" 
	d="
M122.429703,133.179901 
	C121.237000,134.294739 120.293221,135.110077 119.003044,136.224670 
	C119.003044,133.386826 118.967476,130.937622 119.099121,128.497437 
	C119.106354,128.363373 121.080246,128.055817 121.164047,128.249893 
	C121.805153,129.734558 122.204269,131.323730 122.429703,133.179901 
z"/>
<path fill="url(#grad1)" opacity="1.000000" stroke="none" 
	d="
M342.958679,37.781700 
	C342.407959,39.190887 341.925690,40.787872 341.042603,41.053757 
	C340.172729,41.315674 338.313141,40.483944 337.955292,39.665386 
	C337.560120,38.761456 338.378296,37.327110 338.667969,36.123802 
	C340.062531,36.544716 341.457031,36.965630 342.958679,37.781700 
z"/>
<path fill="url(#grad1)" opacity="1.000000" stroke="none" 
	d="
M75.005135,187.994522 
	C73.943481,188.332001 72.881821,188.669479 71.481369,189.010559 
	C71.142570,186.043884 71.142570,183.073593 71.142570,179.401794 
	C72.407654,181.320648 73.483490,182.952423 74.763214,184.886627 
	C74.972618,185.893021 74.978127,186.597015 74.991814,187.650497 
	C74.999992,188.000000 75.005135,187.994522 75.005135,187.994522 
z"/>
<path fill="url(#grad1)" opacity="1.000000" stroke="none" 
	d="
M283.556702,70.596176 
	C284.080933,68.097496 284.232391,64.729362 288.772095,65.860207 
	C289.907654,66.718666 290.728943,67.457375 291.550201,68.196091 
	C291.248657,68.510658 290.947113,68.825233 290.645538,69.139801 
	C289.819275,68.464256 288.992981,67.788712 288.229095,67.164192 
	C286.781189,68.302490 285.359741,69.419998 283.556702,70.596176 
z"/>
<path fill="url(#grad1)" opacity="1.000000" stroke="none" 
	d="
M78.885109,170.402100 
	C78.728027,170.345993 78.570938,170.289902 78.087234,169.838348 
	C76.796867,168.646744 75.833107,167.850586 74.869354,167.054413 
	C74.338913,166.266617 73.808464,165.478821 73.412621,164.098557 
	C73.704559,163.040161 73.861900,162.574249 74.019241,162.108322 
	C75.940201,163.515732 77.861160,164.923157 79.737221,166.993256 
	C79.423248,168.571320 79.154175,169.486710 78.885109,170.402100 
z"/>
<path fill="url(#grad1)" opacity="1.000000" stroke="none" 
	d="
M74.483307,167.166107 
	C75.833107,167.850586 76.796867,168.646744 77.879936,169.698257 
	C76.500977,169.992966 75.002693,170.032318 73.504410,170.071671 
	C73.702026,169.140381 73.899643,168.209106 74.483307,167.166107 
z"/>
<path fill="url(#grad1)" opacity="1.000000" stroke="none" 
	d="
M318.066040,60.289955 
	C318.846191,59.972683 319.483765,59.967628 320.440277,59.967972 
	C321.537262,61.041523 322.315277,62.109673 323.209686,63.514900 
	C322.134644,63.592651 320.943237,63.333328 319.380188,63.037525 
	C318.646851,62.201424 318.285156,61.401802 318.066040,60.289955 
z"/>
<path fill="url(#grad1)" opacity="1.000000" stroke="none" 
	d="
M289.375031,55.669888 
	C289.505463,54.298809 289.635864,52.927727 289.937988,51.166851 
	C290.643524,52.951519 291.177338,55.125984 291.419495,57.646542 
	C290.497955,57.355072 289.868134,56.717514 289.361694,55.734222 
	C289.485077,55.388485 289.375031,55.669888 289.375031,55.669888 
z"/>
<path fill="url(#grad1)" opacity="1.000000" stroke="none" 
	d="
M266.924072,68.751709 
	C267.536804,68.084427 268.271515,67.702515 269.006195,67.320602 
	C269.337860,68.274300 269.669495,69.227989 270.001678,70.571411 
	C269.016815,70.319786 268.031433,69.678436 266.924072,68.751709 
z"/>
<path fill="url(#grad1)" opacity="1.000000" stroke="none" 
	d="
M289.411865,65.085159 
	C289.486725,63.896812 289.866150,62.526844 290.616760,61.080086 
	C292.298950,62.868935 292.461182,64.360077 289.411865,65.085159 
z"/>
<path fill="url(#grad1)" opacity="1.000000" stroke="none" 
	d="
M528.412720,247.847443 
	C527.705505,247.313126 527.407227,246.617828 527.074341,245.841827 
	C528.190979,245.668777 529.076599,245.531525 530.008972,245.131378 
	C530.310608,245.959991 530.565552,247.051483 530.820496,248.142975 
	C530.154175,247.990799 529.487915,247.838623 528.412720,247.847443 
z"/>
<path fill="url(#grad1)" opacity="1.000000" stroke="none" 
	d="
M67.405777,159.518280 
	C67.631172,159.123093 68.006233,159.041794 68.944870,158.843079 
	C70.742805,159.573090 71.977165,160.420532 73.064758,161.654449 
	C72.612099,162.342377 72.306206,162.643845 72.000313,162.945297 
	C70.518692,161.907593 69.037079,160.869873 67.405777,159.518280 
z"/>
<path fill="url(#grad1)" opacity="1.000000" stroke="none" 
	d="
M270.788177,71.447128 
	C271.968475,71.266846 273.342346,71.379799 274.872253,71.795715 
	C273.679443,71.979240 272.330597,71.859802 270.788177,71.447128 
z"/>
<path fill="url(#grad1)" opacity="1.000000" stroke="none" 
	d="
M280.238983,72.204857 
	C280.200958,71.265503 280.399963,70.496132 280.598999,69.726761 
	C281.093292,69.973801 281.587616,70.220833 282.164673,70.835907 
	C281.656982,71.594246 281.066498,71.984550 280.238983,72.204857 
z"/>
<path fill="url(#grad1)" opacity="1.000000" stroke="none" 
	d="
M78.969337,170.630814 
	C79.154175,169.486710 79.423248,168.571320 79.845566,167.329132 
	C80.326157,167.060104 80.604675,167.209122 80.931427,167.668945 
	C80.757423,168.743851 80.486359,169.599182 80.086334,170.769501 
	C79.957375,171.084488 79.470688,171.111740 79.470688,171.111740 
	C79.470688,171.111740 79.053566,170.859528 78.969337,170.630814 
z"/>
<path fill="url(#grad1)" opacity="1.000000" stroke="none" 
	d="
M504.032288,264.980499 
	C504.953125,265.669067 505.641266,266.598602 506.329437,267.528137 
	C505.699615,268.109863 505.069794,268.691559 504.439972,269.273285 
	C504.166870,268.308228 503.893799,267.343140 503.485107,266.047913 
	C503.499573,265.552307 503.649597,265.386902 504.032288,264.980499 
z"/>
<path fill="url(#grad1)" opacity="1.000000" stroke="none" 
	d="
M110.048279,155.308228 
	C110.616142,155.275299 111.100204,155.557693 111.584267,155.840103 
	C111.192650,156.195084 110.801025,156.550064 110.104874,156.911560 
	C109.855057,156.486588 109.909767,156.055084 110.048279,155.308228 
z"/>
<path fill="url(#grad1)" opacity="1.000000" stroke="none" 
	d="
M503.724976,96.004417 
	C503.924194,94.884537 504.453705,94.032310 504.983215,93.180077 
	C505.321228,93.419930 505.659210,93.659782 505.997223,93.899635 
	C505.349915,94.690445 504.702606,95.481255 503.724976,96.004417 
z"/>
<path fill="url(#grad1)" opacity="1.000000" stroke="none" 
	d="
M503.654480,97.491348 
	C502.632568,97.536636 501.886078,97.176254 501.077423,96.482742 
	C501.986816,96.461632 502.958374,96.773651 503.654480,97.491348 
z"/>
<path fill="url(#grad1)" opacity="1.000000" stroke="none" 
	d="
M72.067581,163.198685 
	C72.306206,162.643845 72.612099,162.342377 73.229935,161.945404 
	C73.541878,161.849884 73.935814,161.911072 73.977524,162.009705 
	C73.861900,162.574249 73.704559,163.040161 73.266327,163.753418 
	C72.701904,163.817856 72.418373,163.634964 72.067581,163.198685 
z"/>
<path fill="url(#grad1)" opacity="1.000000" stroke="none" 
	d="
M326.980591,60.638691 
	C326.669647,61.195595 326.184357,61.469353 325.450195,61.869637 
	C325.736298,61.449287 326.271271,60.902416 326.980591,60.638691 
z"/>
<path fill="url(#grad1)" opacity="1.000000" stroke="none" 
	d="
M308.992249,369.010437 
	C309.482208,369.426910 309.751587,370.058197 310.020996,370.689453 
	C309.503174,370.583588 308.985352,370.477753 308.407715,370.021912 
	C308.489136,369.522980 308.630432,369.374115 308.992249,369.010437 
z"/>
<path fill="url(#grad1)" opacity="1.000000" stroke="none" 
	d="
M129.664978,373.822601 
	C129.494537,373.675293 129.529282,373.304932 129.678391,372.669006 
	C129.818558,372.802124 129.844360,373.200836 129.664978,373.822601 
z"/>
<path fill="url(#grad1)" opacity="1.000000" stroke="none" 
	d="
M265.720703,43.003799 
	C265.932648,43.299332 265.774292,43.558929 265.323944,43.877968 
	C265.229004,43.669693 265.335114,43.346512 265.720703,43.003799 
z"/>
<path fill="url(#grad1)" opacity="1.000000" stroke="none" 
	d="
M192.646606,128.326996 
	C192.665222,128.060135 192.862137,127.634354 193.112930,127.521530 
	C193.166809,127.834496 192.824890,128.168060 192.646606,128.326996 
z"/>
<path fill="url(#grad1)" opacity="1.000000" stroke="none" 
	d="
M548.758911,186.692688 
	C548.570435,186.964890 548.341187,187.253845 548.111938,187.542816 
	C548.185303,187.365677 548.258667,187.188538 548.568481,186.841125 
	C548.804993,186.670837 548.718140,186.709473 548.758911,186.692688 
z"/>
<path fill="url(#grad1)" opacity="1.000000" stroke="none" 
	d="
M406.903046,296.890442 
	C409.073822,296.055817 410.857697,295.222321 412.689636,294.512939 
	C414.858643,293.673004 417.069092,292.940033 419.998505,291.898743 
	C421.721283,299.500366 423.160370,305.850281 424.762451,312.919250 
	C413.565948,312.321472 411.422546,301.285248 403.551971,297.575470 
	C404.547119,297.365814 405.542267,297.156158 406.903046,296.890442 
z"/>
<path fill="url(#grad1)" opacity="1.000000" stroke="none" 
	d="
M128.097260,373.553223 
	C125.758072,373.525940 123.444183,373.063873 120.684052,372.512665 
	C121.329704,370.572540 121.970863,368.645905 122.661476,366.349792 
	C123.995880,362.971741 125.280838,359.963104 126.565788,356.954468 
	C127.084709,357.065002 127.603622,357.175507 128.122543,357.286041 
	C128.122543,362.563507 128.122543,367.840973 128.097260,373.553223 
z"/>
<path fill="url(#grad1)" opacity="1.000000" stroke="none" 
	d="
M134.719711,347.762177 
	C137.185196,348.075104 139.549622,348.075104 141.914047,348.075104 
	C142.012070,348.532349 142.110092,348.989563 142.208099,349.446808 
	C138.620636,351.543427 135.033157,353.640045 131.548248,355.676727 
	C130.190567,350.075226 130.668198,348.664490 134.719711,347.762177 
z"/>
<path fill="url(#grad1)" opacity="1.000000" stroke="none" 
	d="
M81.608261,335.284363 
	C82.138969,332.378815 82.605904,329.877075 83.145378,326.986694 
	C88.297935,334.429138 88.224937,335.226593 81.886086,341.143158 
	C81.759377,339.119720 81.651932,337.403931 81.608261,335.284363 
z"/>
<path fill="url(#grad1)" opacity="1.000000" stroke="none" 
	d="
M64.199173,318.710388 
	C65.205925,319.883148 66.745308,321.348419 66.846832,322.907288 
	C67.053055,326.073883 62.477791,328.475708 58.279800,326.952240 
	C60.317848,324.174438 62.199493,321.609833 64.199173,318.710388 
z"/>
<path fill="url(#grad1)" opacity="1.000000" stroke="none" 
	d="
M74.997192,188.002823 
	C76.786751,187.922928 78.579109,187.840225 80.026703,187.773422 
	C80.026703,189.836548 80.026703,191.781509 80.026703,195.073425 
	C77.778191,192.169693 76.434143,190.433990 75.047607,188.346405 
	C75.005135,187.994522 74.999992,188.000000 74.997192,188.002823 
z"/>
<path fill="url(#grad1)" opacity="1.000000" stroke="none" 
	d="
M76.632629,195.143585 
	C76.775955,195.632675 76.653877,196.099899 76.531792,196.567139 
	C76.172760,196.391083 75.813728,196.215042 75.454697,196.039001 
	C75.758865,195.733231 76.063042,195.427475 76.632629,195.143585 
z"/>
<path fill="url(#grad1)" opacity="1.000000" stroke="none" 
	d="
M289.270630,55.581432 
	C289.375031,55.669888 289.485077,55.388485 289.429321,55.351402 
	C289.373535,55.314316 289.166199,55.492977 289.270630,55.581432 
z"/>
<path fill="url(#grad1)" opacity="1.000000" stroke="none" 
	d="
M269.450897,65.531555 
	C269.418701,65.477203 269.483093,65.585907 269.450897,65.531555 
z"/>
<path fill="url(#grad1)" opacity="1.000000" stroke="none" 
	d="
M52.194901,180.240936 
	C52.476627,180.235168 52.551327,180.452530 52.626022,180.669922 
	C52.413307,180.601303 52.200588,180.532700 52.194901,180.240936 
z"/>
</svg>