<svg version="1.1" id="Layer_1" xmlns="http://www.w3.org/2000/svg" xmlns:xlink="http://www.w3.org/1999/xlink" x="0px" y="0px"
	 width="50px" viewBox="0 0 50 50" enable-background="new 0 0 200 200" xml:space="preserve">
<path fill="none" opacity="1.000000" stroke="#000000" stroke-linecap="round" stroke-linejoin="round" stroke-width="4.000000"
	d="
M154.500000,178.500000 
	C152.400040,174.122208 150.869370,169.502762 146.550659,166.428833 
	C141.900162,163.118759 137.007797,161.990402 131.337372,162.771210 
	C122.422913,150.230301 114.244514,149.588867 106.000000,161.000000 
"/>
<path fill="none" opacity="1.000000" stroke="#000000" stroke-linecap="round" stroke-linejoin="round" stroke-width="4.000000"
	d="
M101.000000,79.500000 
	C106.867531,78.634605 110.603790,74.483200 109.999992,69.500000 
	C109.456245,65.012405 104.481216,60.828190 99.999542,60.987045 
	C95.536621,61.145241 91.151833,65.536957 90.986191,69.999489 
	C90.794258,75.170372 94.580856,79.000793 100.500000,79.500000 
"/>
<path fill="none" opacity="1.000000" stroke="#000000" stroke-linecap="round" stroke-linejoin="round" stroke-width="5.000000"
	d="
M124.500000,127.500000 
	C123.677994,126.997169 124.334709,126.000916 123.965508,125.526863 
	C116.324646,115.715630 118.385284,105.091927 120.162788,93.946220 
	C121.121399,87.935356 120.369484,81.320099 119.954956,75.002953 
	C119.256081,64.352463 117.120903,54.022419 111.999290,44.500381 
	C108.976265,38.880032 105.367393,33.707218 100.299706,28.819742 
	C94.951469,34.430614 90.743683,40.311588 87.460037,46.980324 
	C81.598183,58.885136 81.104630,71.588165 80.881538,84.497955 
	C80.723991,93.614929 81.425171,102.572418 83.080551,111.485039 
	C83.225327,112.264511 83.575729,112.714188 83.030899,113.520874 
	C80.811256,116.807266 80.418289,121.068306 77.500000,124.000000 
"/>
<path fill="none" opacity="1.000000" stroke="#000000" stroke-linecap="round" stroke-linejoin="round" stroke-width="4.000000"
	d="
M95.000000,161.500000 
	C92.560654,157.715851 89.864761,154.294952 85.002075,153.487488 
	C77.606560,152.259445 72.434387,156.233459 69.889679,164.090637 
	C58.486790,162.544815 51.978252,168.973892 47.500000,178.500000 
"/>
<path fill="none" opacity="1.000000" stroke="#000000" stroke-linecap="round" stroke-linejoin="round" stroke-width="4.000000"
	d="
M123.500000,124.000000 
	C127.039116,120.539185 125.828583,115.560791 127.468079,111.487152 
	C127.698982,110.913422 127.381454,110.141342 127.517662,109.503777 
	C129.782410,98.902748 129.717834,98.727745 121.000000,93.500000 
"/>
<path fill="none" opacity="1.000000" stroke="#000000" stroke-linecap="round" stroke-linejoin="round" stroke-width="4.000000"
	d="
M87.500000,50.000000 
	C96.267212,53.671047 105.111282,53.268787 114.000000,50.500000 
"/>
<path fill="none" opacity="1.000000" stroke="#000000" stroke-linecap="round" stroke-linejoin="round" stroke-width="5.000000"
	d="
M84.000000,112.500000 
	C88.070015,113.909393 89.597824,116.151360 88.430550,119.978821 
	C87.465057,123.144676 88.517601,124.053757 91.500229,124.020638 
	C97.666130,123.952164 103.833374,123.987854 109.999985,124.005882 
	C112.526817,124.013268 113.402626,123.302925 112.591583,120.473747 
	C111.334312,116.087944 112.774452,113.908524 117.000000,112.500000 
"/>
<path fill="none" opacity="1.000000" stroke="#000000" stroke-linecap="round" stroke-linejoin="round" stroke-width="4.000000"
	d="
M79.500000,93.500000 
	C76.245049,94.795570 74.554932,97.897491 71.993843,99.992470 
	C71.103668,100.720619 71.356392,101.748192 71.548889,102.487267 
	C73.231400,108.947655 73.523872,115.734436 76.033157,121.986694 
	C76.774765,123.834541 77.628815,125.548897 76.500000,127.500000 
"/>
<path fill="none" opacity="1.000000" stroke="#000000" stroke-linecap="round" stroke-linejoin="round" stroke-width="5.000000"
	d="
M90.000000,118.000000 
	C97.000000,118.000000 104.000000,118.000000 111.000000,118.000000 
"/>
<path fill="none" opacity="1.000000" stroke="#000000" stroke-linecap="round" stroke-linejoin="round" stroke-width="4.000000"
	d="
M100.500000,91.500000 
	C100.500000,98.166664 100.500000,104.833336 100.500000,111.500000 
"/>
<path fill="none" opacity="1.000000" stroke="#000000" stroke-linecap="round" stroke-linejoin="round" stroke-width="4.000000"
	d="
M100.500000,136.500000 
	C100.500000,142.166672 100.500000,147.833328 100.500000,153.500000 
"/>
<path fill="none" opacity="1.000000" stroke="#000000" stroke-linecap="round" stroke-linejoin="round" stroke-width="5.000000"
	d="
M109.000000,128.500000 
	C109.000000,133.500000 109.000000,138.500000 109.000000,143.500000 
"/>
<path fill="none" opacity="1.000000" stroke="#000000" stroke-linecap="round" stroke-linejoin="round" stroke-width="5.000000"
	d="
M92.000000,128.500000 
	C92.000000,133.500000 92.000000,138.500000 92.000000,143.500000 
"/>
<path fill="none" opacity="1.000000" stroke="#000000" stroke-linecap="round" stroke-linejoin="round" stroke-width="4.000000"
	d="
M107.500000,164.500000 
	C106.666107,160.542648 103.646301,160.429825 100.499893,160.495026 
	C97.012672,160.567322 94.276871,161.654282 93.500000,165.500000 
"/>
</svg>